<svg width="24" height="24" viewBox="0 0 24 24" fill="none" xmlns="http://www.w3.org/2000/svg">
<path d="M13.0998 19.5001C12.803 19.5003 12.5129 19.4124 12.2661 19.2475C12.0193 19.0827 11.8269 18.8484 11.7133 18.5742C11.5998 18.3001 11.57 17.9984 11.628 17.7073C11.6859 17.4162 11.8289 17.1489 12.0388 16.9391L16.6248 12.3541C16.6714 12.3077 16.7083 12.2525 16.7335 12.1918C16.7587 12.131 16.7717 12.0659 16.7717 12.0001C16.7717 11.9344 16.7587 11.8692 16.7335 11.8085C16.7083 11.7477 16.6714 11.6926 16.6248 11.6461L12.0428 7.06113C11.7614 6.77986 11.6033 6.39834 11.6032 6.00048C11.6031 5.60262 11.761 5.22102 12.0423 4.93963C12.3236 4.65823 12.7051 4.50009 13.1029 4.5C13.5008 4.49991 13.8824 4.65786 14.1638 4.93913L18.7498 9.52513C19.405 10.1822 19.773 11.0722 19.773 12.0001C19.773 12.928 19.405 13.8181 18.7498 14.4751L14.1638 19.0611C14.0241 19.2008 13.8582 19.3114 13.6756 19.3867C13.493 19.4621 13.2973 19.5006 13.0998 19.5001Z" fill="white"/>
<path d="M6.0998 19.5001C5.80303 19.5003 5.51289 19.4124 5.26609 19.2475C5.01929 19.0827 4.82693 18.8484 4.71334 18.5742C4.59975 18.3001 4.57005 17.9984 4.62798 17.7073C4.68592 17.4162 4.82889 17.1489 5.0388 16.9391L9.9818 12.0001L5.0428 7.06113C4.76141 6.77986 4.60327 6.39834 4.60317 6.00048C4.60308 5.60262 4.76104 5.22102 5.0423 4.93963C5.32356 4.65823 5.70509 4.50009 6.10295 4.5C6.50081 4.49991 6.88241 4.65786 7.1638 4.93913L13.1638 10.9391C13.3032 11.0784 13.4138 11.2438 13.4892 11.4259C13.5647 11.6079 13.6035 11.8031 13.6035 12.0001C13.6035 12.1972 13.5647 12.3923 13.4892 12.5744C13.4138 12.7564 13.3032 12.9218 13.1638 13.0611L7.1638 19.0611C7.02409 19.2008 6.85818 19.3114 6.67558 19.3867C6.49299 19.4621 6.29732 19.5006 6.0998 19.5001Z" fill="white"/>
</svg>
