<svg width="24" height="24" viewBox="0 0 24 24" fill="none" xmlns="http://www.w3.org/2000/svg">
<path d="M10.9002 19.5001C11.197 19.5003 11.4871 19.4124 11.7339 19.2475C11.9807 19.0827 12.1731 18.8484 12.2867 18.5742C12.4002 18.3001 12.43 17.9984 12.372 17.7073C12.3141 17.4162 12.1711 17.1489 11.9612 16.9391L7.3752 12.3541C7.32864 12.3077 7.29169 12.2525 7.26649 12.1918C7.24128 12.131 7.2283 12.0659 7.2283 12.0001C7.2283 11.9344 7.24128 11.8692 7.26649 11.8085C7.29169 11.7477 7.32864 11.6926 7.3752 11.6461L11.9572 7.06113C12.2386 6.77986 12.3967 6.39834 12.3968 6.00048C12.3969 5.60262 12.239 5.22102 11.9577 4.93963C11.6764 4.65823 11.2949 4.50009 10.8971 4.5C10.4992 4.49991 10.1176 4.65786 9.8362 4.93913L5.2502 9.52513C4.59497 10.1822 4.22701 11.0722 4.22701 12.0001C4.22701 12.928 4.59497 13.8181 5.2502 14.4751L9.8362 19.0611C9.97591 19.2008 10.1418 19.3114 10.3244 19.3867C10.507 19.4621 10.7027 19.5006 10.9002 19.5001Z" fill="black"/>
<path d="M17.9002 19.5001C18.197 19.5003 18.4871 19.4124 18.7339 19.2475C18.9807 19.0827 19.1731 18.8484 19.2867 18.5742C19.4002 18.3001 19.43 17.9984 19.372 17.7073C19.3141 17.4162 19.1711 17.1489 18.9612 16.9391L14.0182 12.0001L18.9572 7.06113C19.2386 6.77986 19.3967 6.39834 19.3968 6.00048C19.3969 5.60262 19.239 5.22102 18.9577 4.93963C18.6764 4.65823 18.2949 4.50009 17.8971 4.5C17.4992 4.49991 17.1176 4.65786 16.8362 4.93913L10.8362 10.9391C10.6968 11.0784 10.5862 11.2438 10.5108 11.4259C10.4353 11.6079 10.3965 11.8031 10.3965 12.0001C10.3965 12.1972 10.4353 12.3923 10.5108 12.5744C10.5862 12.7564 10.6968 12.9218 10.8362 13.0611L16.8362 19.0611C16.9759 19.2008 17.1418 19.3114 17.3244 19.3867C17.507 19.4621 17.7027 19.5006 17.9002 19.5001Z" fill="black"/>
</svg>
