<svg width="30" height="30" viewBox="0 0 30 30" fill="none" xmlns="http://www.w3.org/2000/svg">
<g clip-path="url(#clip0_1:495)">
<path d="M1.875 7.5H28.125C28.6223 7.5 29.0992 7.30246 29.4508 6.95083C29.8025 6.59919 30 6.12228 30 5.625C30 5.12772 29.8025 4.65081 29.4508 4.29917C29.0992 3.94754 28.6223 3.75 28.125 3.75H1.875C1.37772 3.75 0.900805 3.94754 0.549175 4.29917C0.197544 4.65081 0 5.12772 0 5.625C0 6.12228 0.197544 6.59919 0.549175 6.95083C0.900805 7.30246 1.37772 7.5 1.875 7.5Z" fill="white"/>
<path d="M28.125 10H1.875C1.37772 10 0.900805 10.1975 0.549175 10.5492C0.197544 10.9008 0 11.3777 0 11.875C0 12.3723 0.197544 12.8492 0.549175 13.2008C0.900805 13.5525 1.37772 13.75 1.875 13.75H28.125C28.6223 13.75 29.0992 13.5525 29.4508 13.2008C29.8025 12.8492 30 12.3723 30 11.875C30 11.3777 29.8025 10.9008 29.4508 10.5492C29.0992 10.1975 28.6223 10 28.125 10Z" fill="white"/>
<path d="M28.125 22.5H1.875C1.37772 22.5 0.900805 22.6975 0.549175 23.0492C0.197544 23.4008 0 23.8777 0 24.375C0 24.8723 0.197544 25.3492 0.549175 25.7008C0.900805 26.0525 1.37772 26.25 1.875 26.25H28.125C28.6223 26.25 29.0992 26.0525 29.4508 25.7008C29.8025 25.3492 30 24.8723 30 24.375C30 23.8777 29.8025 23.4008 29.4508 23.0492C29.0992 22.6975 28.6223 22.5 28.125 22.5Z" fill="white"/>
<path d="M28.125 16.25H1.875C1.37772 16.25 0.900805 16.4475 0.549175 16.7992C0.197544 17.1508 0 17.6277 0 18.125C0 18.6223 0.197544 19.0992 0.549175 19.4508C0.900805 19.8025 1.37772 20 1.875 20H28.125C28.6223 20 29.0992 19.8025 29.4508 19.4508C29.8025 19.0992 30 18.6223 30 18.125C30 17.6277 29.8025 17.1508 29.4508 16.7992C29.0992 16.4475 28.6223 16.25 28.125 16.25Z" fill="white"/>
</g>
<defs>
<clipPath id="clip0_1:495">
<rect width="30" height="30" fill="white"/>
</clipPath>
</defs>
</svg>
