<svg width="26" height="20" viewBox="0 0 26 20" fill="none" xmlns="http://www.w3.org/2000/svg">
<path d="M21.6892 19.5971L4.31152 19.5971C2.04412 19.5971 0.199707 17.7527 0.199707 15.4853L0.199707 4.51465C0.199707 2.24753 2.04441 0.402832 4.31152 0.402832L21.6892 0.402832C23.9564 0.402832 25.8008 2.24753 25.8008 4.51465L25.8008 15.4853C25.8008 17.7527 23.9564 19.5971 21.6892 19.5971ZM4.31152 1.60523C2.70719 1.60523 1.4021 2.91031 1.4021 4.51465L1.4021 15.4853C1.4021 17.0896 2.70719 18.395 4.31152 18.395L21.6892 18.395C23.2936 18.395 24.5987 17.0896 24.5987 15.4853L24.5987 4.51465C24.5987 2.91031 23.2936 1.60523 21.6892 1.60523L4.31152 1.60523Z" fill="white"/>
<path d="M3.34149 4.57207C6.41475 7.56683 9.48802 10.5613 12.5613 13.5561C13.1342 14.1142 14.0134 13.2369 13.4397 12.6777C10.3664 9.68318 7.29315 6.68842 4.21989 3.69395C3.64699 3.13556 2.76774 4.01311 3.34149 4.57207Z" fill="white"/>
<path d="M13.4395 13.556C16.5128 10.5615 19.5861 7.56679 22.6593 4.57232C23.2328 4.01336 22.3541 3.13553 21.7809 3.69391C18.7077 6.68839 15.6344 9.68314 12.5611 12.6776C11.9877 13.2366 12.8664 14.1144 13.4395 13.556Z" fill="white"/>
<path d="M22.6252 15.6755C20.5802 13.7361 18.535 11.797 16.49 9.85756C15.91 9.30771 15.0302 10.1844 15.6116 10.736C17.6566 12.6754 19.7018 14.6145 21.7468 16.5539C22.3268 17.1038 23.2066 16.2268 22.6252 15.6755Z" fill="white"/>
<path d="M4.30878 16.5535C6.35374 14.6141 8.39898 12.675 10.4439 10.7356C11.0251 10.1843 10.1458 9.30702 9.56553 9.85715C7.52058 11.7966 5.47534 13.7357 3.43038 15.6751C2.84924 16.2264 3.72849 17.104 4.30878 16.5535Z" fill="white"/>
</svg>
