<svg width="20" height="20" viewBox="0 0 20 20" fill="none" xmlns="http://www.w3.org/2000/svg">
<path d="M19.25 15.9167H14.25H13.9756L13.7661 16.0937L10.5911 18.7754L10.5909 18.7755C10.4464 18.8976 10.2682 18.9716 10.0812 18.9884L10.4841 18.6478L13.9128 15.75H18.3333H19.0833V15V2.5C19.0833 2.08008 18.9165 1.67735 18.6196 1.38041L18.0893 1.91074L18.6196 1.38041C18.3227 1.08348 17.9199 0.916667 17.5 0.916667H2.5C2.08007 0.916667 1.67735 1.08348 1.38041 1.38041L1.91074 1.91074L1.38041 1.38041C1.08348 1.67735 0.916667 2.08007 0.916667 2.5V15V15.75H1.66667H6.08718L9.51587 18.6478L9.91903 18.9886C9.73127 18.9721 9.55241 18.898 9.40746 18.7755L9.40743 18.7755L6.23409 16.0938L6.02446 15.9167H5.75H0.75V2.5C0.75 2.03587 0.934374 1.59075 1.26256 1.26256C1.59075 0.934374 2.03587 0.75 2.5 0.75H16.75H17.5C17.9641 0.75 18.4092 0.934374 18.7374 1.26256C19.0656 1.59075 19.25 2.03587 19.25 2.5V15.9167Z" stroke="#9B9B9D" stroke-width="1.5"/>
</svg>
