<svg width="23" height="23" viewBox="0 0 23 23" fill="none" xmlns="http://www.w3.org/2000/svg">
<path d="M22.9999 21.6448L16.9988 15.6437C18.5577 13.7372 19.3241 11.3045 19.1396 8.84874C18.9551 6.39298 17.8337 4.10209 16.0075 2.44991C14.1813 0.797736 11.7899 -0.0893151 9.32799 -0.0277597C6.86608 0.0337958 4.522 1.03925 2.78063 2.78063C1.03925 4.522 0.0337958 6.86608 -0.0277597 9.32799C-0.0893151 11.7899 0.797736 14.1813 2.44991 16.0075C4.10209 17.8337 6.39298 18.9551 8.84874 19.1396C11.3045 19.3241 13.7372 18.5577 15.6437 16.9988L21.6448 22.9999L22.9999 21.6448ZM9.58325 17.2499C8.06692 17.2499 6.58465 16.8003 5.32387 15.9578C4.0631 15.1154 3.08044 13.9181 2.50017 12.5172C1.9199 11.1163 1.76807 9.57474 2.06389 8.08755C2.35971 6.60037 3.08989 5.2343 4.16209 4.16209C5.2343 3.08989 6.60037 2.35971 8.08755 2.06389C9.57474 1.76807 11.1163 1.9199 12.5172 2.50017C13.9181 3.08044 15.1154 4.0631 15.9578 5.32387C16.8003 6.58465 17.2499 8.06692 17.2499 9.58325C17.2476 11.6159 16.4392 13.5646 15.0019 15.0019C13.5646 16.4392 11.6159 17.2476 9.58325 17.2499Z" fill="#9B9B9D"/>
</svg>
