<svg width="22" height="22" viewBox="0 0 22 22" fill="none" xmlns="http://www.w3.org/2000/svg">
<path d="M4.61282 14.6963C5.32412 13.985 6.28847 13.5848 7.2944 13.5835H14.7056C15.7115 13.5848 16.6759 13.985 17.3872 14.6963C18.0984 15.4075 18.4986 16.3718 18.5 17.3776C18.5 17.3778 18.5 17.3781 18.5 17.3783L18.5 21.2502H3.5V17.3779C3.50133 16.372 3.90152 15.4076 4.61282 14.6963Z" stroke="#9B9B9D" stroke-width="1.5"/>
<path d="M15.75 5.5C15.75 8.12335 13.6234 10.25 11 10.25C8.37665 10.25 6.25 8.12335 6.25 5.5C6.25 2.87665 8.37665 0.75 11 0.75C13.6234 0.75 15.75 2.87665 15.75 5.5Z" stroke="#9B9B9D" stroke-width="1.5"/>
</svg>
